<svg width="32" height="32" viewBox="0 0 32 32" fill="none" xmlns="http://www.w3.org/2000/svg">
<g clip-path="url(#clip0_160_3467)">
<path d="M29.7931 32H2.20688C0.993125 32 0 31.0069 0 29.7931V2.20688C0 0.993125 0.993125 0 2.20688 0H29.7931C31.0069 0 32 0.993125 32 2.20688V29.7931C32 31.0069 31.0069 32 29.7931 32Z" fill="white" fill-opacity="0.1"/>
<path d="M22 7.00005V11.1667H18.2759C17.8207 11.1667 17.4483 11.5417 17.4483 12V14.5001H21.5862V18.6667H17.4483V27H13.3104V18.6667H10V14.5H13.3104V12C13.3104 9.37498 15.2965 7.20834 17.8621 7L22 7.00005Z" fill="white"/>
</g>
<defs>
<clipPath id="clip0_160_3467">
<rect width="32" height="32" rx="16" fill="white"/>
</clipPath>
</defs>
</svg>
