<svg width="32" height="32" viewBox="0 0 32 32" fill="none" xmlns="http://www.w3.org/2000/svg">
<g clip-path="url(#clip0_160_3439)">
<path d="M32 0H0V32H32V0Z" fill="white" fill-opacity="0.1"/>
<path d="M16.0778 25.5362C15.9212 25.5362 15.7646 25.4971 15.6472 25.4188C14.4923 24.7533 5.97769 19.4096 5.66451 19.253C5.42962 19.1356 5.25346 18.9007 5.23389 18.6267V11.1495C5.23389 10.8754 5.37091 10.6014 5.60579 10.4448L5.66451 10.4057C6.48661 9.89676 9.24652 8.21341 9.67715 7.97852C9.77501 7.9198 9.89246 7.88065 10.0099 7.88065C10.1273 7.88065 10.2252 7.9198 10.3231 7.95895C10.3231 7.95895 14.1791 10.4644 14.7663 10.6993C15.1774 10.895 15.6276 10.9929 16.0974 10.9733C16.6063 10.9929 17.1152 10.8559 17.585 10.621C18.1722 10.3078 21.8521 7.97852 21.8912 7.97852C21.9891 7.9198 22.087 7.90023 22.2044 7.90023C22.3218 7.90023 22.4393 7.93937 22.5372 7.9981C23.0461 8.27213 26.4519 10.3665 26.6085 10.4644C26.8434 10.6014 27 10.8754 27 11.1495V18.6267C26.9804 18.9007 26.8043 19.1356 26.5694 19.253C26.2562 19.4292 17.7611 24.7729 16.5867 25.4188C16.391 25.4971 16.2344 25.5362 16.0778 25.5362Z" fill="url(#paint0_linear_160_3439)"/>
<path d="M16.0386 25.5363H16.0778C16.2344 25.5363 16.3909 25.4971 16.5084 25.4188C17.6632 24.7533 26.1583 19.4096 26.491 19.2531C26.7455 19.1356 26.9021 18.9007 26.9217 18.6267V11.1495C26.9217 11.0125 26.9021 10.895 26.8434 10.7776L16.019 16.728L16.0386 25.5363Z" fill="url(#paint1_linear_160_3439)"/>
<path d="M16.0127 25.4239H15.974C15.8191 25.4239 15.6642 25.3852 15.548 25.3077C14.4054 24.6493 6.00088 19.3626 5.67167 19.2077C5.41992 19.0915 5.265 18.8591 5.24564 18.588V11.2098C5.24564 11.0742 5.265 10.9581 5.3231 10.8419L16.0321 16.7289V25.4239" fill="url(#paint2_linear_160_3439)"/>
<path d="M10.8236 13.5836H11.7942V18.3289H13.5198V19.2456H10.8236V13.5836Z" fill="white"/>
<path d="M15.7844 15.0395C16.3236 15.0395 16.8089 15.2552 17.1325 15.6866V15.1473H18.0492V19.3534H17.1325V18.8142C16.8089 19.2456 16.3236 19.4613 15.7844 19.4613C14.652 19.4613 13.7892 18.4906 13.7892 17.3043C13.7892 16.0101 14.652 15.0395 15.7844 15.0395ZM15.9461 15.8484C15.1912 15.8484 14.7059 16.4415 14.7059 17.1965C14.7059 17.9514 15.1912 18.5446 15.9461 18.5446C16.7011 18.5446 17.1864 17.9514 17.1864 17.1965C17.1864 16.4415 16.7011 15.8484 15.9461 15.8484Z" fill="white"/>
<path d="M18.7506 18.5985L20.9615 15.9562H18.8045V15.1473H22.1478V15.9023L19.9909 18.4906H22.2017V19.2995H18.7506V18.5985Z" fill="white"/>
</g>
<defs>
<linearGradient id="paint0_linear_160_3439" x1="5.27407" y1="16.7665" x2="2020.11" y2="1.15769" gradientUnits="userSpaceOnUse">
<stop offset="1e-07" stop-color="#FFB900"/>
<stop offset="0.3376" stop-color="#F38000"/>
<stop offset="0.5673" stop-color="#F83C72"/>
<stop offset="0.78" stop-color="#FC1CBE"/>
<stop offset="0.93" stop-color="#FE08ED"/>
<stop offset="1" stop-color="#FF00FF"/>
</linearGradient>
<linearGradient id="paint1_linear_160_3439" x1="11.3162" y1="23.8111" x2="2065.53" y2="-1113.59" gradientUnits="userSpaceOnUse">
<stop stop-color="#EE0A3F"/>
<stop offset="1" stop-color="#EE0A3F" stop-opacity="0"/>
</linearGradient>
<linearGradient id="paint2_linear_160_3439" x1="10.9673" y1="18.0809" x2="972.241" y2="-756.277" gradientUnits="userSpaceOnUse">
<stop stop-color="#ED6600"/>
<stop offset="1" stop-color="#F98200"/>
</linearGradient>
<clipPath id="clip0_160_3439">
<rect width="32" height="32" rx="16" fill="white"/>
</clipPath>
</defs>
</svg>
