<svg width="32" height="32" viewBox="0 0 32 32" fill="none" xmlns="http://www.w3.org/2000/svg">
<rect width="32" height="32" rx="16" fill="white" fill-opacity="0.1"/>
<path d="M16.9447 8.4101C16.9944 8.10344 17.2843 7.89541 17.5909 7.94505C17.6099 7.94869 17.671 7.9601 17.703 7.96723C17.767 7.98148 17.8563 8.00343 17.9676 8.03585C18.1902 8.10068 18.5011 8.20748 18.8743 8.37858C19.6215 8.72115 20.6159 9.3204 21.6477 10.3523C22.6796 11.3841 23.2789 12.3785 23.6214 13.1257C23.7925 13.4989 23.8993 13.8098 23.9642 14.0324C23.9966 14.1437 24.0185 14.233 24.0328 14.297C24.0399 14.329 24.0451 14.3547 24.0487 14.3737L24.0531 14.3971C24.1027 14.7037 23.8966 15.0056 23.5899 15.0553C23.2841 15.1048 22.996 14.8978 22.9452 14.5925C22.9436 14.5843 22.9393 14.5623 22.9347 14.5415C22.9254 14.5 22.9094 14.4341 22.884 14.347C22.8333 14.1728 22.7451 13.9138 22.5988 13.5945C22.3064 12.9568 21.7806 12.0761 20.8522 11.1477C19.9239 10.2194 19.0432 9.69361 18.4055 9.40123C18.0862 9.25487 17.8272 9.16671 17.653 9.11596C17.5659 9.09059 17.4564 9.06545 17.4148 9.0562C17.1096 9.00534 16.8952 8.7159 16.9447 8.4101Z" fill="white"/>
<path fill-rule="evenodd" clip-rule="evenodd" d="M17.1144 10.9972C17.1998 10.6985 17.5111 10.5255 17.8098 10.6109L17.6553 11.1517C17.8098 10.6109 17.8098 10.6109 17.8098 10.6109L17.8109 10.6112L17.812 10.6115L17.8145 10.6122L17.8203 10.614L17.8352 10.6186C17.8465 10.6222 17.8606 10.6269 17.8775 10.6329C17.9111 10.6449 17.9557 10.6619 18.0103 10.6853C18.1195 10.7321 18.2688 10.8044 18.4522 10.9129C18.8193 11.1302 19.3204 11.4911 19.9092 12.0798C20.4979 12.6685 20.8588 13.1697 21.076 13.5368C21.1846 13.7202 21.2569 13.8695 21.3037 13.9787C21.3271 14.0333 21.3441 14.0778 21.3561 14.1115C21.3621 14.1284 21.3668 14.1425 21.3704 14.1538L21.375 14.1686L21.3767 14.1745L21.3775 14.177L21.3778 14.1781C21.3778 14.1781 21.3781 14.1792 20.8373 14.3337L21.3781 14.1792C21.4635 14.4779 21.2905 14.7892 20.9918 14.8746C20.6956 14.9592 20.387 14.7899 20.2986 14.4958L20.2958 14.4877C20.2918 14.4765 20.2836 14.4543 20.2697 14.4219C20.2419 14.3571 20.1916 14.2512 20.1079 14.1098C19.9407 13.8272 19.6386 13.4003 19.1137 12.8753C18.5887 12.3503 18.1618 12.0483 17.8792 11.8811C17.7378 11.7974 17.6319 11.7471 17.5671 11.7193C17.5347 11.7054 17.5125 11.6971 17.5012 11.6931L17.4932 11.6904C17.1991 11.602 17.0298 11.2934 17.1144 10.9972Z" fill="white"/>
<path fill-rule="evenodd" clip-rule="evenodd" d="M10.7556 10.3052C12.0157 9.04512 14.142 9.14091 15.0194 10.713L15.5061 11.5852C16.0791 12.6118 15.8349 13.9071 14.9962 14.7561C14.985 14.7714 14.9258 14.8576 14.9184 15.0082C14.909 15.2005 14.9773 15.645 15.6661 16.3339C16.3547 17.0225 16.7993 17.0909 16.9916 17.0816C17.1423 17.0742 17.2286 17.015 17.2439 17.0038C18.0929 16.1651 19.3882 15.9209 20.4148 16.4939L21.287 16.9806C22.8591 17.858 22.9549 19.9843 21.6948 21.2444C21.0208 21.9184 20.1246 22.5173 19.0715 22.5572C17.5108 22.6163 14.9194 22.2133 12.353 19.647C9.78669 17.0806 9.38365 14.4892 9.44281 12.9285C9.48274 11.8754 10.0816 10.9792 10.7556 10.3052ZM14.037 11.2613C13.5877 10.4562 12.3805 10.2713 11.5511 11.1007C10.9696 11.6822 10.5915 12.324 10.567 12.9711C10.5177 14.2726 10.839 16.5419 13.1485 18.8515C15.458 21.161 17.7274 21.4823 19.0289 21.433C19.676 21.4085 20.3178 21.0304 20.8993 20.4489C21.7287 19.6195 21.5438 18.4123 20.7387 17.963L19.8665 17.4762C19.324 17.1734 18.5619 17.2767 18.0269 17.8117C17.9744 17.8642 17.6398 18.1763 17.0462 18.2052C16.4386 18.2348 15.703 17.9617 14.8706 17.1294C14.038 16.2967 13.765 15.561 13.7948 14.9532C13.8239 14.3596 14.136 14.0254 14.1883 13.9731C14.7232 13.4381 14.8266 12.676 14.5238 12.1334L14.037 11.2613Z" fill="white"/>
</svg>
