<svg width="32" height="32" viewBox="0 0 32 32" fill="none" xmlns="http://www.w3.org/2000/svg">
<rect width="32" height="32" rx="16" fill="white" fill-opacity="0.1"/>
<path fill-rule="evenodd" clip-rule="evenodd" d="M15.7207 4.99187C15.6998 4.99596 15.5969 5.01319 15.4922 5.03015C13.701 5.32005 12.4182 7.4176 12.2862 10.2725L12.2802 10.3994L10.1094 10.4121L7.93851 10.4248L7.79473 10.4954C7.54493 10.6181 7.37762 10.8572 7.3498 11.1313C7.33472 11.2797 7.35435 11.5809 7.58426 14.7285C7.98115 20.1618 8.18408 22.8015 8.21697 22.9594C8.35412 23.6172 8.85436 24.2193 9.47062 24.4681C9.87369 24.631 9.3076 24.6182 16.1016 24.6182H22.2588L22.4873 24.5469C23.2139 24.3202 23.7411 23.7719 23.9348 23.0416C23.995 22.8147 24.8884 11.2435 24.8583 11.0818C24.8103 10.8252 24.6373 10.596 24.4053 10.4816L24.29 10.4248L22.1001 10.4181L19.9101 10.4113L19.9099 10.3419C19.9031 8.53723 19.0026 6.41212 17.8896 5.57453C17.3008 5.13142 16.334 4.87168 15.7207 4.99187ZM16.6094 6.084C17.8279 6.40334 18.6353 7.80715 18.8685 10.0112C18.8828 10.1468 18.8945 10.2925 18.8945 10.3349V10.4121H16.0977H13.3009L13.3174 10.1265C13.4774 7.3671 14.8893 5.63316 16.6094 6.084ZM16.7998 12.7333C17.7063 12.8955 18.4883 13.314 18.4883 13.6368C18.4883 13.9268 18.2408 13.9889 17.8709 13.7916C16.1658 12.8824 14.4431 13.2529 14.1054 14.6016C13.8787 15.5066 14.5736 16.192 16.292 16.7584C18.0623 17.3419 18.8237 17.9442 19.0224 18.918C19.4258 20.8954 17.6025 22.2211 15.1875 21.7064C14.1902 21.4938 13.1182 20.8907 13.1182 20.5422C13.1182 20.2062 13.386 20.1579 13.7737 20.4241C15.6683 21.7249 18.2883 21.2291 18.3791 19.5527C18.4313 18.5875 17.7262 17.9465 15.9783 17.3703C14.1619 16.7715 13.4366 16.1072 13.3908 15.0004C13.3267 13.4515 14.9141 12.3958 16.7998 12.7333Z" fill="#FCFBFB"/>
<path fill-rule="evenodd" clip-rule="evenodd" d="M15.9431 4.97106C15.9747 4.97717 16.0204 4.97691 16.0447 4.97054C16.069 4.96424 16.0431 4.95923 15.9873 4.95956C15.9314 4.95982 15.9115 4.96502 15.9431 4.97106ZM16.1586 4.97061C16.183 4.97704 16.2231 4.97704 16.2475 4.97061C16.272 4.96424 16.2519 4.95904 16.2031 4.95904C16.1542 4.95904 16.1342 4.96424 16.1586 4.97061ZM12.2734 10.209C12.2734 10.2578 12.2786 10.2779 12.285 10.2534C12.2914 10.229 12.2914 10.189 12.285 10.1646C12.2786 10.1401 12.2734 10.1601 12.2734 10.209ZM14.684 10.4058C15.4475 10.4095 16.7043 10.4095 17.477 10.4058C18.2497 10.402 17.6249 10.399 16.0888 10.399C14.5527 10.399 13.9205 10.402 14.684 10.4058ZM7.32277 11.2373C7.32303 11.2932 7.32823 11.313 7.33434 11.2815C7.34038 11.2499 7.34012 11.2042 7.33382 11.1799C7.32745 11.1556 7.32244 11.1814 7.32277 11.2373ZM16.0825 12.6901C16.1208 12.6959 16.1837 12.6959 16.2221 12.6901C16.2605 12.6842 16.2291 12.6795 16.1523 12.6795C16.0755 12.6795 16.0441 12.6842 16.0825 12.6901ZM16.0317 13.2734C16.0561 13.2798 16.0961 13.2798 16.1205 13.2734C16.145 13.2669 16.125 13.2617 16.0761 13.2617C16.0272 13.2617 16.0072 13.2669 16.0317 13.2734ZM19.0553 19.4004C19.0553 19.5051 19.0598 19.548 19.0653 19.4956C19.0708 19.4432 19.0708 19.3575 19.0653 19.3052C19.0598 19.2528 19.0553 19.2956 19.0553 19.4004ZM23.3743 24.0278L23.2998 24.1104L23.3823 24.0358C23.4276 23.9947 23.4648 23.9576 23.4648 23.9533C23.4648 23.9336 23.4438 23.9509 23.3743 24.0278ZM13.0864 24.6499C14.7168 24.6535 17.3847 24.6535 19.0151 24.6499C20.6455 24.6463 19.3115 24.6433 16.0507 24.6433C12.7899 24.6433 11.456 24.6463 13.0864 24.6499Z" fill="#FC916F"/>
<path fill-rule="evenodd" clip-rule="evenodd" d="M9.13809 10.4058C9.71412 10.4095 10.6568 10.4095 11.2328 10.4058C11.8088 10.4019 11.3375 10.3988 10.1854 10.3988C9.03331 10.3988 8.562 10.4019 9.13809 10.4058ZM20.9574 10.4058C21.5404 10.4095 22.4945 10.4095 23.0775 10.4058C23.6605 10.4019 23.1836 10.3988 22.0175 10.3988C20.8514 10.3988 20.3744 10.4019 20.9574 10.4058Z" fill="#FCAC94"/>
<path fill-rule="evenodd" clip-rule="evenodd" d="M14.4258 15.7774C14.4258 15.7819 14.463 15.819 14.5083 15.86L14.5908 15.9346L14.5163 15.8521C14.4468 15.7751 14.4258 15.7579 14.4258 15.7774Z" fill="#FCAC8C"/>
</svg>
