<svg width="32" height="32" viewBox="0 0 32 32" fill="none" xmlns="http://www.w3.org/2000/svg">
<g clip-path="url(#clip0_160_3456)">
<path fill-rule="evenodd" clip-rule="evenodd" d="M17.0395 13.7322C17.0392 21.4146 17.043 21.0869 16.9494 21.4769C16.3864 23.8219 13.2978 24.5499 11.7357 22.7059C11.6572 22.6131 11.5758 22.5319 11.5548 22.5252C11.269 22.4345 10.6386 21.8311 10.3955 21.4156C9.0078 19.043 11.1916 16.2489 13.8551 16.9892C13.8777 16.9955 13.9 16.9785 13.9 16.9551V15.5894V14.3558C13.9 14.2572 13.8201 14.1772 13.7214 14.1772C12.4915 14.1772 10.9301 14.7772 9.85018 15.6647C6.93075 18.064 6.62868 22.4868 9.19748 25.2209C9.38619 25.4218 9.65602 25.5966 10.1302 25.8253C14.0331 27.7081 18.7628 25.2965 19.4822 21.0569C19.5725 20.5246 19.5673 20.7757 19.5743 16.572L19.5804 12.8631C19.5806 12.7579 19.6979 12.6954 19.7853 12.7539C21.1364 13.6586 22.8249 14.1954 24.3247 14.1969C24.4545 14.1971 24.5597 14.0919 24.5597 13.9622V12.8011V11.6899C24.5597 11.5216 24.4471 11.3741 24.2847 11.3298C23.4516 11.102 22.6866 10.6603 22.0799 10.0564C21.9724 9.94948 21.8271 9.82356 21.7571 9.7766C20.6714 9.04855 19.919 7.90186 19.6482 6.56247C19.6429 6.53627 19.6198 6.51743 19.5931 6.51743H18.3395C17.6218 6.51743 17.0399 7.09925 17.0399 7.81699L17.0395 13.7322Z" fill="#FBFBFB"/>
<path fill-rule="evenodd" clip-rule="evenodd" d="M15.9932 5.65082C15.9859 5.6581 15.9799 8.93399 15.9799 12.9306C15.9799 19.4109 15.9765 20.2164 15.9488 20.3771C15.7606 21.4678 14.9714 22.3869 13.9313 22.7267C13.2146 22.9609 12.3226 22.9122 11.7181 22.6059C11.6299 22.5612 11.6159 22.5583 11.6396 22.5891C13.1584 24.5623 16.37 23.8895 16.9493 21.4769C17.0429 21.0869 17.0391 21.4146 17.0394 13.7322L17.0398 7.81763C17.0398 7.09954 17.6219 6.51743 18.34 6.51743H19.5544C19.5997 6.51743 19.6345 6.47732 19.6281 6.43247C19.6214 6.38567 19.6079 6.29344 19.5981 6.22744C19.5882 6.16144 19.58 6.00169 19.5799 5.87249C19.5798 5.74266 19.4745 5.63746 19.3447 5.63746H17.7932C16.8105 5.63746 16.0005 5.64346 15.9932 5.65082ZM21.9682 9.94348C22.1662 10.2033 22.8405 10.7115 23.2961 10.9446C23.6555 11.1284 24.3957 11.3973 24.5424 11.3973C24.5518 11.3973 24.5596 11.2271 24.5596 11.0192V10.8564C24.5596 10.7356 24.4653 10.6358 24.3446 10.6291C23.4939 10.5814 22.635 10.3275 22.023 9.94276L21.9886 9.9211C21.9741 9.91196 21.9577 9.92983 21.9682 9.94348ZM12.31 13.3278C8.4354 13.7342 5.75949 17.3823 6.5305 21.2069C6.86001 22.8416 7.8139 24.2961 9.2001 25.2773C9.2183 25.2902 9.23954 25.2658 9.22427 25.2495L9.19738 25.2209C6.62858 22.4863 6.93065 18.0641 9.85007 15.6647C10.93 14.7772 12.4914 14.1772 13.7213 14.1772C13.82 14.1772 13.8999 14.0972 13.8999 13.9985V13.7676C13.8999 13.359 13.8999 13.3579 13.855 13.3485C13.6059 13.2958 12.7265 13.284 12.31 13.3278Z" fill="#6BCBD3"/>
<path fill-rule="evenodd" clip-rule="evenodd" d="M19.6526 6.58247C19.8546 7.70235 20.5287 8.81815 21.4398 9.54053C21.6652 9.71932 21.9021 9.88052 21.8598 9.82644C21.8433 9.8054 21.7771 9.72492 21.7126 9.64773C21.071 8.87919 20.6217 7.68419 20.6202 6.74246C20.62 6.61812 20.5191 6.51743 20.3948 6.51743H20.1303H19.7069C19.6725 6.51743 19.6465 6.54859 19.6526 6.58247ZM24.5597 12.7951V13.9622C24.5597 14.0919 24.4545 14.1971 24.3247 14.1969C22.825 14.1954 21.1364 13.6586 19.7853 12.7539C19.6979 12.6954 19.5806 12.7579 19.5804 12.8631L19.5743 16.572C19.5673 20.7757 19.5725 20.5246 19.4822 21.0569C18.7077 25.6209 13.4106 27.9402 9.4502 25.4493L9.41207 25.4253C9.40231 25.4192 9.39207 25.4324 9.40044 25.4403C11.0541 27.0056 13.1527 27.6348 15.32 27.215C17.8895 26.7173 19.9624 24.6615 20.4907 22.0869C20.623 21.4422 20.6198 21.5593 20.6198 17.3249C20.6198 15.2197 20.6273 13.4972 20.6365 13.4972C20.6457 13.4972 20.7025 13.5324 20.7626 13.5755C21.9916 14.4555 23.7761 15.0341 25.3497 15.0627C25.4816 15.0652 25.59 14.9591 25.5904 14.8271L25.5948 13.2852L25.5991 11.7786C25.5996 11.6247 25.4785 11.4979 25.3248 11.4912C25.0793 11.4805 24.7526 11.4413 24.6107 11.4057C24.5848 11.3992 24.5597 11.4188 24.5597 11.4456V12.7951ZM13.9 15.5774V16.9551C13.9 16.9785 13.8777 16.9955 13.8551 16.9892C11.1916 16.2489 9.00781 19.043 10.3955 21.4156C10.6427 21.8381 11.1317 22.3103 11.5324 22.5133C11.5546 22.5245 11.5773 22.499 11.5634 22.4783L11.5059 22.3923C10.6645 21.1352 10.93 19.3812 12.1073 18.4193C12.8578 17.8063 13.8945 17.5781 14.7887 17.8294C14.8429 17.8446 14.8992 17.8571 14.9138 17.8571C14.9355 17.8571 14.9393 17.5372 14.9351 16.0422L14.9305 14.3986C14.9302 14.3005 14.8574 14.2176 14.76 14.2049C14.6665 14.1926 14.4348 14.176 14.2451 14.1679C14.0569 14.1599 13.9 14.3103 13.9 14.4986V15.5774Z" fill="#EB1B53"/>
<path fill-rule="evenodd" clip-rule="evenodd" d="M3.92029 0.519869C3.65654 0.561708 3.54102 0.584267 3.40031 0.621546C3.31783 0.643385 3.22336 0.668345 3.19032 0.677064C1.85676 1.02897 0.531765 2.35397 0.179856 3.68752C0.171137 3.72056 0.146178 3.81504 0.124338 3.89752C0.0858596 4.04287 0.0625803 4.16455 0.0205817 4.4391C-0.00541739 4.60877 -0.00749733 28.3815 0.0184218 28.5381C0.0283415 28.5978 0.0471409 28.7142 0.0602604 28.7967C0.0820197 28.934 0.102419 29.0225 0.163617 29.2467C0.193056 29.3542 0.278333 29.5983 0.301692 29.6414C0.311932 29.6605 0.320412 29.6849 0.320412 29.6956C0.320412 29.7308 0.506486 30.1024 0.626322 30.3066C1.1803 31.2503 2.21139 32.0526 3.21032 32.3172C3.24335 32.3259 3.32431 32.3479 3.39031 32.3661C3.55094 32.4102 3.66814 32.4322 3.93029 32.467C4.25828 32.5106 27.7392 32.5112 28.0595 32.4677C28.374 32.4249 28.7295 32.3442 28.9395 32.2679C28.989 32.2499 29.0699 32.2212 29.1195 32.2041C30.1989 31.8303 31.3331 30.6961 31.7069 29.6167C31.724 29.5671 31.7527 29.4862 31.7707 29.4367C31.847 29.2268 31.9277 28.8712 31.9705 28.5567C32.014 28.2364 32.0134 4.75549 31.9698 4.4275C31.935 4.16535 31.913 4.04815 31.8689 3.88752C31.8507 3.82152 31.8287 3.74056 31.82 3.70752C31.5554 2.7086 30.7531 1.67751 29.8094 1.12353C29.6052 1.00369 29.2336 0.81762 29.1984 0.81762C29.1877 0.81762 29.1633 0.80914 29.1442 0.7989C29.0174 0.730342 28.5536 0.597787 28.2995 0.557468C28.217 0.544349 28.1006 0.525549 28.0409 0.51563C27.8992 0.49219 4.06829 0.49635 3.92029 0.519869ZM19.5798 5.85865C19.5798 6.05257 19.5915 6.18392 19.6311 6.43207C19.6371 6.46941 19.6691 6.49701 19.7069 6.49742L20.1356 6.50207L20.2796 6.50363C20.4755 6.50576 20.6352 6.66156 20.6421 6.85742C20.6653 7.5134 20.8399 8.15906 21.1638 8.78736C21.4208 9.2859 21.8213 9.8206 22.0297 9.94372C22.6788 10.327 23.492 10.5773 24.1896 10.6087C24.3216 10.6146 24.4589 10.6239 24.4946 10.6292C24.532 10.6349 24.5596 10.6671 24.5596 10.7048V11.0142V11.2423C24.5596 11.327 24.621 11.3993 24.7046 11.4129C25.037 11.4669 25.3095 11.494 25.5446 11.4966C25.5751 11.497 25.5996 11.5218 25.5996 11.5522V13.2872V14.8922C25.5996 14.9943 25.5167 15.077 25.4146 15.0769C24.9964 15.0763 24.1955 14.9825 23.7796 14.8856C23.5805 14.8391 23.2567 14.7572 23.1897 14.7363C22.7873 14.611 22.4494 14.4902 22.2641 14.4055C22.206 14.3789 22.1545 14.3572 22.1496 14.3572C22.077 14.3572 21.1891 13.8717 20.8645 13.6545C20.7517 13.579 20.6549 13.5172 20.6495 13.5172C20.6441 13.5172 20.6397 15.1907 20.6397 17.236C20.6397 21.5309 20.6417 21.478 20.4566 22.2769C20.1383 23.6514 19.2938 24.9987 18.2105 25.8605C18.1001 25.9484 17.9948 26.0322 17.9765 26.0469C17.5518 26.3868 16.7899 26.7849 16.1661 26.9929C15.8757 27.0898 15.8223 27.1059 15.5999 27.1642C15.4826 27.1949 15.127 27.2604 14.8799 27.2967C14.4335 27.3625 13.6012 27.3627 13.1912 27.2972C13.1245 27.2866 12.9804 27.2634 12.871 27.2457C12.1667 27.1319 11.2204 26.7796 10.6662 26.4252C10.6074 26.3876 10.5542 26.3568 10.5478 26.3568C10.4822 26.3568 9.7625 25.7955 9.47011 25.5163C9.37115 25.4218 9.22716 25.3006 9.15012 25.2469C7.43018 24.0486 6.41069 22.0542 6.41029 19.887C6.41021 19.2225 6.43725 18.9306 6.53997 18.487C6.60676 18.1983 6.6318 18.1037 6.6922 17.911C7.62449 14.935 10.584 12.9895 13.67 13.3237C13.7956 13.3373 13.8912 13.4425 13.8929 13.5688L13.8954 13.7523L13.8973 13.8926C13.8992 14.0393 14.0187 14.1572 14.1654 14.1573C14.4037 14.1575 14.6573 14.1761 14.8647 14.2089C14.9078 14.2156 14.9396 14.2527 14.9397 14.2963L14.9447 16.0489C14.9476 17.0544 14.948 17.8771 14.9458 17.8771C14.9434 17.8771 14.8534 17.855 14.7458 17.828C13.0811 17.4107 11.4047 18.487 11.0685 20.1885C10.8845 21.1197 11.2808 22.4246 11.8136 22.642C13.5041 23.3321 15.4155 22.4077 15.8771 20.677C15.9865 20.2665 15.9797 20.7817 15.9798 12.9023L15.9799 7.4374C15.9799 6.44332 16.7857 5.63746 17.7798 5.63746H19.3586C19.4807 5.63746 19.5798 5.73649 19.5798 5.85865Z" fill="white" fill-opacity="0.1"/>
<path fill-rule="evenodd" clip-rule="evenodd" d="M20.1293 6.51223L20.369 6.51513C20.5084 6.51682 20.6216 6.62841 20.6253 6.76782L20.6317 7.01749L20.6309 6.76246C20.6303 6.62141 20.5159 6.5073 20.3749 6.50714L20.1349 6.50687L19.6399 6.50639L20.1293 6.51223ZM24.395 10.6315C24.4199 10.6363 24.4558 10.636 24.475 10.6311C24.4941 10.626 24.4738 10.6221 24.4298 10.6223C24.3858 10.6226 24.3701 10.6267 24.395 10.6315ZM25.225 11.4916C25.2554 11.4962 25.3004 11.4961 25.325 11.4913C25.3496 11.4866 25.3248 11.4829 25.2697 11.483C25.2148 11.4831 25.1946 11.487 25.225 11.4916ZM20.6248 17.2821C20.6274 19.3637 20.6319 20.455 20.6348 19.707C20.6484 16.0896 20.6485 13.4972 20.6349 13.4972C20.6266 13.4972 20.6221 15.2004 20.6248 17.2821ZM14.2851 14.1717C14.3263 14.1761 14.3939 14.1761 14.4351 14.1717C14.4763 14.1674 14.4426 14.1639 14.3601 14.1639C14.2776 14.1639 14.2439 14.1674 14.2851 14.1717ZM24.6648 15.0309C24.684 15.0359 24.7155 15.0359 24.7348 15.0309C24.754 15.0259 24.7382 15.0218 24.6998 15.0218C24.6613 15.0218 24.6455 15.0259 24.6648 15.0309ZM25.1748 15.0712C25.1995 15.076 25.24 15.076 25.2648 15.0712C25.2895 15.0665 25.2693 15.0626 25.2197 15.0626C25.1702 15.0626 25.15 15.0665 25.1748 15.0712ZM11.9791 18.5321L11.9102 18.607L11.9852 18.5381C12.055 18.474 12.0694 18.457 12.0541 18.457C12.0507 18.457 12.017 18.4908 11.9791 18.5321ZM11.8092 18.7021L11.7302 18.787L11.8152 18.708C11.8943 18.6345 11.9094 18.617 11.8943 18.617C11.891 18.617 11.8527 18.6553 11.8092 18.7021ZM11.0253 20.447C11.0255 20.491 11.0296 20.5066 11.0344 20.4818C11.0392 20.4569 11.0389 20.4209 11.034 20.4018C11.0289 20.3827 11.025 20.403 11.0253 20.447ZM11.0253 21.0469C11.0255 21.0909 11.0296 21.1066 11.0344 21.0817C11.0392 21.0569 11.0389 21.0209 11.034 21.0017C11.0289 20.9826 11.025 21.003 11.0253 21.0469ZM20.5845 21.4969C20.5845 21.5354 20.5886 21.5512 20.5937 21.532C20.5987 21.5127 20.5987 21.4812 20.5937 21.462C20.5886 21.4427 20.5845 21.4585 20.5845 21.4969ZM18.6892 25.4218L18.59 25.5268L18.695 25.4275C18.7925 25.3354 18.8092 25.3168 18.7942 25.3168C18.7911 25.3168 18.7438 25.3641 18.6892 25.4218ZM9.54026 25.5868C9.57754 25.6253 9.61258 25.6568 9.6181 25.6568C9.62362 25.6568 9.59754 25.6253 9.56026 25.5868C9.52299 25.5483 9.48795 25.5168 9.48243 25.5168C9.47691 25.5168 9.50299 25.5483 9.54026 25.5868ZM18.3989 25.6918L18.33 25.7668L18.405 25.6978C18.4748 25.6338 18.4892 25.6168 18.4739 25.6168C18.4705 25.6168 18.4368 25.6506 18.3989 25.6918ZM13.4953 27.3309C13.5202 27.3357 13.5562 27.3355 13.5753 27.3305C13.5944 27.3255 13.5741 27.3215 13.5301 27.3218C13.4861 27.322 13.4705 27.3261 13.4953 27.3309ZM14.4951 27.3308C14.5199 27.3356 14.5603 27.3356 14.5851 27.3308C14.6099 27.3261 14.5896 27.3222 14.5401 27.3222C14.4906 27.3222 14.4703 27.3261 14.4951 27.3308ZM13.9259 27.3515C13.9895 27.3555 14.0885 27.3555 14.1459 27.3515C14.2032 27.3475 14.1511 27.3442 14.0301 27.3443C13.9092 27.3443 13.8622 27.3475 13.9259 27.3515Z" fill="#5E091E"/>
</g>
<defs>
<clipPath id="clip0_160_3456">
<rect width="32" height="32" rx="16" fill="white"/>
</clipPath>
</defs>
</svg>
