<svg width="1920" height="134" viewBox="0 0 1920 134" fill="none" xmlns="http://www.w3.org/2000/svg">
<path d="M1036.72 -0.499947H1036.72H1036.73L1036.76 -0.499947L1036.91 -0.499947L1037.46 -0.499946L1039.52 -0.499945L1046.49 -0.499943L1064.4 -0.499939H1919C1919.28 -0.499939 1919.5 -0.276068 1919.5 6.10352e-05V81.0001C1919.5 81.2762 1919.28 81.5001 1919 81.5001H1059.04C1048.91 81.5001 1039.72 86.7754 1032.69 93.9359C1014.92 112.044 988.722 123.5 959.5 123.5C930.278 123.5 904.085 112.044 886.307 93.936C879.277 86.7754 870.092 81.5001 859.963 81.5001H0.999985C0.72385 81.5001 0.5 81.2762 0.5 81.0001V6.10352e-05C0.5 -0.276081 0.723858 -0.499939 1 -0.499939H854.6H854.664H854.728H854.792H854.856H854.92H854.984H855.048H855.113H855.178H855.243H855.307H855.373H855.438H855.503H855.569H855.634H855.7H855.766H855.832H855.898H855.964H856.03H856.096H856.163H856.23H856.296H856.363H856.43H856.497H856.564H856.632H856.699H856.766H856.834H856.902H856.969H857.037H857.105H857.173H857.242H857.31H857.378H857.447H857.515H857.584H857.653H857.722H857.79H857.859H857.929H857.998H858.067H858.136H858.206H858.275H858.345H858.415H858.484H858.554H858.624H858.694H858.764H858.834H858.905H858.975H859.045H859.116H859.186H859.257H859.327H859.398H859.469H859.54H859.61H859.681H859.752H859.823H859.895H859.966H860.037H860.108H860.18H860.251H860.323H860.394H860.466H860.537H860.609H860.68H860.752H860.824H860.896H860.968H861.04H861.112H861.184H861.256H861.328H861.4H861.472H861.544H861.616H861.689H861.761H861.833H861.906H861.978H862.05H862.123H862.195H862.268H862.34H862.413H862.485H862.558H862.63H862.703H862.776H862.848H862.921H862.994H863.066H863.139H863.212H863.284H863.357H863.43H863.503H863.575H863.648H863.721H863.794H863.867H863.939H864.012H864.085H864.158H864.23H864.303H864.376H864.449H864.521H864.594H864.667H864.74H864.812H864.885H864.958H865.03H865.103H865.176H865.248H865.321H865.393H865.466H865.538H865.611H865.683H865.756H865.828H865.901H865.973H866.046H866.118H866.19H866.262H866.335H866.407H866.479H866.551H866.623H866.695H866.767H866.839H866.911H866.983H867.055H867.127H867.199H867.27H867.342H867.414H867.485H867.557H867.628H867.7H867.771H867.842H867.914H867.985H868.056H868.127H868.198H868.269H868.34H868.411H868.482H868.552H868.623H868.694H868.764H868.835H868.905H868.975H869.046H869.116H869.186H869.256H869.326H869.396H869.466H869.535H869.605H869.675H869.744H869.813H869.883H869.952H870.021H870.09H870.159H870.228H870.297H870.366H870.434H870.503H870.571H870.64H870.708H870.776H870.844H870.912H870.98H871.048H871.115H871.183H871.25H871.318H871.385H871.452H871.519H871.586H871.653H871.719H871.786H871.852H871.919H871.985H872.051H872.117H872.183H872.249H872.314H872.38H872.445H872.51H872.576H872.641H872.706H872.77H872.835H872.899H872.964H873.028H873.092H873.156H873.22H873.284H873.347H873.411H873.474H873.537H873.6H873.663H873.726H873.789H873.851H873.913H873.975H874.037H874.099H874.161H874.223H874.284H874.345H874.406H874.467H874.528H874.589H874.649H874.71H874.77H874.83H874.89H874.949H875.009H875.068H875.127H875.186H875.245H875.304H875.362H875.421H875.479H875.537H875.595H875.652H875.71H875.767H875.824H875.881H875.938H875.994H876.051H876.107H876.163H876.219H876.274H876.33H876.385H876.44H876.495H876.55H876.604H876.659H876.713H876.767H876.82H876.874H876.927H876.98H877.033H877.086H877.139H877.191H877.243H877.295H877.347H877.398H877.45H877.501H877.551H877.602H877.653H877.703H877.753H877.803H877.852H877.902H877.951H878H878.048H878.097H878.145H878.193H878.241H878.288H878.336H878.383H878.43H878.477H878.523H878.569H878.615H878.661H878.706H878.752H878.797H878.841H878.886H878.93H878.974H879.018H879.062H879.105H879.148H879.191H879.234H879.276H879.318H879.36H879.402H879.443H879.484H879.525H879.565H879.606H879.646H879.686H879.725H879.764H879.803H879.842H879.881H879.919H879.957H879.995H880.032H880.069H880.106H880.143H880.179H880.215H880.251H880.286H880.322H880.357H880.391H880.426H880.46H880.494H880.527H880.561H880.594H880.626H880.659H880.691H880.723H880.754H880.786H880.817H880.847H880.878H880.908H880.938H880.967H880.996H881.025H881.054H881.082H881.11H881.138H881.165H881.193H881.219H881.246H881.272H881.298H881.323H881.349H881.374H881.398H881.423H881.447H881.47H881.494H881.517H881.539H881.562H881.584H881.606H881.627H881.648H881.669H881.689H881.71H881.729H881.749H881.768H881.787H881.805H881.824H881.841H881.859H881.876H881.893H881.909H881.925H881.941H881.957H881.972H881.987H882.001H882.015H882.029H882.042H882.055H882.068H882.08H882.092H882.104H882.115H882.126H882.137H882.147H882.157H882.166H882.175H882.184H882.193H882.201H882.208H882.216H882.223H882.229H882.235H882.241H882.247H882.252H882.256H882.261H882.265H882.268H882.272H882.275H882.277H882.279H882.281H882.282H882.283H882.284C882.284 -0.499939 882.284 -0.499939 882.284 -0.999939V-0.499939H959.5L1036.72 -0.499947V-0.999947C1036.72 -0.499947 1036.72 -0.499947 1036.72 -0.499947Z" stroke="url(#paint0_linear_15801_5769)" stroke-opacity="0.75"/>
<defs>
<linearGradient id="paint0_linear_15801_5769" x1="0" y1="37.5" x2="1920" y2="37.5" gradientUnits="userSpaceOnUse">
<stop stop-color="white" stop-opacity="0.0666667"/>
<stop offset="0.50743" stop-color="white"/>
<stop offset="1" stop-color="white" stop-opacity="0.0666667"/>
</linearGradient>
</defs>
</svg>
